<?xml version="1.0" encoding="UTF-8"?>
<!DOCTYPE svg PUBLIC "-//W3C//DTD SVG 1.1//EN" "http://www.w3.org/Graphics/SVG/1.1/DTD/svg11.dtd">
<svg xmlns="http://www.w3.org/2000/svg" version="1.1" width="121px" height="106px" style="shape-rendering:geometricPrecision; text-rendering:geometricPrecision; image-rendering:optimizeQuality; fill-rule:evenodd; clip-rule:evenodd" xmlns:xlink="http://www.w3.org/1999/xlink">
<g><path style="opacity:1" fill="#2e3a4c" d="M -0.5,-0.5 C 39.8333,-0.5 80.1667,-0.5 120.5,-0.5C 120.5,3.5 120.5,7.5 120.5,11.5C 102.385,10.1796 84.0513,9.51291 65.5,9.5C 47.5,9.66667 29.5,9.83333 11.5,10C 8.41727,10.786 6.2506,12.6193 5,15.5C 4.33333,42.8333 4.33333,70.1667 5,97.5C 5.81299,99.4357 6.31299,101.436 6.5,103.5C 41.5,103.5 76.5,103.5 111.5,103.5C 111.5,102.167 111.5,100.833 111.5,99.5C 114.167,99.5 116.833,99.5 119.5,99.5C 119.232,97.901 119.566,96.5676 120.5,95.5C 120.5,98.8333 120.5,102.167 120.5,105.5C 80.1667,105.5 39.8333,105.5 -0.5,105.5C -0.5,70.1667 -0.5,34.8333 -0.5,-0.5 Z"/></g>
<g><path style="opacity:1" fill="#344154" d="M 120.5,11.5 C 120.5,39.5 120.5,67.5 120.5,95.5C 119.566,96.5676 119.232,97.901 119.5,99.5C 116.833,99.5 114.167,99.5 111.5,99.5C 111.5,100.833 111.5,102.167 111.5,103.5C 76.5,103.5 41.5,103.5 6.5,103.5C 6.31299,101.436 5.81299,99.4357 5,97.5C 4.33333,70.1667 4.33333,42.8333 5,15.5C 6.2506,12.6193 8.41727,10.786 11.5,10C 29.5,9.83333 47.5,9.66667 65.5,9.5C 84.0513,9.51291 102.385,10.1796 120.5,11.5 Z"/></g>
<g><path style="opacity:1" fill="#08150c" d="M 53.5,27.5 C 59.5771,27.1959 65.5771,27.6959 71.5,29C 88.5561,39.3908 92.0561,53.2241 82,70.5C 72.5789,80.3115 61.4123,82.8115 48.5,78C 30.1185,64.0875 28.7852,48.7542 44.5,32C 47.324,29.9212 50.324,28.4212 53.5,27.5 Z"/></g>
<g><path style="opacity:1" fill="#1ab417" d="M 63.5,30.5 C 70.2393,30.887 75.5727,33.887 79.5,39.5C 79.6085,42.8992 80.9418,45.5659 83.5,47.5C 85.8226,62.5496 79.8226,72.2163 65.5,76.5C 59.3277,76.0548 53.3277,75.0548 47.5,73.5C 47.5,73.1667 47.5,72.8333 47.5,72.5C 44.5134,68.3312 41.6801,63.9979 39,59.5C 37.3382,50.3598 40.1716,43.0265 47.5,37.5C 48.9223,36.4528 50.4223,36.4528 52,37.5C 53.1712,36.6604 54.3379,35.8271 55.5,35C 54.8288,34.0138 54.8288,32.8471 55.5,31.5C 58.0961,30.7347 60.7628,30.4013 63.5,30.5 Z"/></g>
<g><path style="opacity:1" fill="#22a322" d="M 53.5,31.5 C 54.1667,31.5 54.8333,31.5 55.5,31.5C 54.8288,32.8471 54.8288,34.0138 55.5,35C 54.3379,35.8271 53.1712,36.6604 52,37.5C 50.4223,36.4528 48.9223,36.4528 47.5,37.5C 40.1716,43.0265 37.3382,50.3598 39,59.5C 41.6801,63.9979 44.5134,68.3312 47.5,72.5C 43.5147,70.6791 40.6814,67.6791 39,63.5C 35.2482,52.5152 37.4148,43.0152 45.5,35C 47.8175,33.0073 50.4842,31.8406 53.5,31.5 Z"/></g>
<g><path style="opacity:1" fill="#256829" d="M 63.5,30.5 C 60.7628,30.4013 58.0961,30.7347 55.5,31.5C 54.8333,31.5 54.1667,31.5 53.5,31.5C 56.7076,29.4686 60.041,29.1353 63.5,30.5 Z"/></g>
<g><path style="opacity:1" fill="#2a8023" d="M 79.5,39.5 C 81.873,41.5792 83.2064,44.2459 83.5,47.5C 80.9418,45.5659 79.6085,42.8992 79.5,39.5 Z"/></g>
<g><path style="opacity:1" fill="#2a8b2b" d="M 47.5,73.5 C 53.3277,75.0548 59.3277,76.0548 65.5,76.5C 59.089,78.2561 53.089,77.2561 47.5,73.5 Z"/></g>
</svg>
